<svg xmlns="http://www.w3.org/2000/svg" version="1.1" xmlns:xlink="http://www.w3.org/1999/xlink" xmlns:svgjs="http://svgjs.dev/svgjs" width="2000" height="570" viewBox="0 0 2000 570"><g transform="matrix(1,0,0,1,-1.2121212121212466,-1.7904284680225828)"><svg viewBox="0 0 396 113" data-background-color="#ffffff" preserveAspectRatio="xMidYMid meet" height="570" width="2000" xmlns="http://www.w3.org/2000/svg" xmlns:xlink="http://www.w3.org/1999/xlink"><g id="tight-bounds" transform="matrix(1,0,0,1,0.2400000000000091,0.35494459102903875)"><svg viewBox="0 0 395.52 112.29011081794195" height="112.29011081794195" width="395.52"><g><svg viewBox="0 0 395.52 112.29011081794195" height="112.29011081794195" width="395.52"><g><svg viewBox="0 0 395.52 112.29011081794195" height="112.29011081794195" width="395.52"><g id="textblocktransform"><svg viewBox="0 0 395.52 112.29011081794195" height="112.29011081794195" width="395.52" id="textblock"><g><svg viewBox="0 0 395.52 112.29011081794195" height="112.29011081794195" width="395.52"><g transform="matrix(1,0,0,1,0,0)"><svg width="395.52" viewBox="1.1 -40 142.11 40.35" height="112.29011081794195" data-palette-color="#818cf8"><path d="M4.5 0L1.1 0 5.38-40 11.83-40 12.15-37 7.88-37 6.8-22.93 5.95-14.6 9.93-14.6 9.13-11.6 5.7-11.6 4.5 0ZM16 0L12.63 0 10.38-22.98 9.45-35.48 12.25-35.48 16 0ZM19.25-5.6L19.25-5.6Q19.2-7.75 19.17-10.06 19.15-12.38 19.15-14.78 19.15-17.18 19.17-19.6 19.2-22.03 19.25-24.4L19.25-24.4Q19.35-27.6 20.54-28.98 21.72-30.35 24.07-30.35L24.07-30.35Q25.02-30.35 25.69-30.11 26.35-29.88 26.87-29.45L26.87-29.45 26.87-27.4Q26.12-27.75 25.15-27.75L25.15-27.75Q23.82-27.75 23.22-27.03 22.62-26.3 22.57-24.63L22.57-24.63Q22.47-21.2 22.45-17.9 22.42-14.6 22.45-11.48 22.47-8.35 22.57-5.38L22.57-5.38Q22.62-3.73 23.2-2.99 23.77-2.25 25.12-2.25L25.12-2.25Q26.07-2.25 26.87-2.6L26.87-2.6 26.87-0.6Q26.35-0.15 25.66 0.1 24.97 0.35 24.02 0.35L24.02 0.35Q21.65 0.35 20.5-1.05 19.35-2.45 19.25-5.6ZM32.37 0L29.07 0 29.07-40 32.37-40 32.37 0ZM41.17 0L37.85 0 37.85-30 41.17-30 41.17 0ZM60.77 0L57.45 0 57.42-24.63Q57.4-26.3 56.8-27.03 56.2-27.75 54.87-27.75L54.87-27.75Q53.9-27.75 53.17-27.4L53.17-27.4 53.17-29.45Q53.72-29.88 54.43-30.11 55.15-30.35 56.02-30.35L56.02-30.35Q58.37-30.35 59.53-28.98 60.7-27.6 60.75-24.4L60.75-24.4 60.77 0ZM51.02 0L47.72 0 47.67-24.63Q47.65-26.3 47.06-27.03 46.47-27.75 45.12-27.75L45.12-27.75Q44.62-27.75 44.18-27.68 43.75-27.6 43.35-27.4L43.35-27.4 43.35-29.38Q43.9-29.85 44.6-30.1 45.3-30.35 46.3-30.35L46.3-30.35Q48.65-30.35 49.8-28.98 50.95-27.6 51-24.4L51-24.4 51.02 0ZM70.39-36L65.14-36 65.14-40 70.39-40 70.39-36ZM69.42 0L66.12 0 66.12-30 69.42-30 69.42 0ZM78.19 0L74.87 0 74.87-30 78.19-30 78.19 0ZM88.04 0L84.74 0 84.74-24.63Q84.72-26.3 84.1-27.03 83.49-27.75 82.14-27.75L82.14-27.75Q81.67-27.75 81.23-27.64 80.79-27.53 80.37-27.33L80.37-27.33 80.37-29.28Q80.94-29.8 81.64-30.08 82.34-30.35 83.32-30.35L83.32-30.35Q85.67-30.35 86.84-28.98 88.02-27.6 88.04-24.4L88.04-24.4 88.04 0ZM97.66-36L92.41-36 92.41-40 97.66-40 97.66-36ZM96.69 0L93.39 0 93.39-30 96.69-30 96.69 0ZM101.69-5.6L101.69-5.6 101.69-30 105.01-30 105.01-5.38Q105.01-3.73 105.62-2.99 106.24-2.25 107.56-2.25L107.56-2.25Q108.46-2.25 109.34-2.68L109.34-2.68 109.34-0.63Q108.16 0.35 106.51 0.35L106.51 0.35Q104.16 0.35 102.92-1.05 101.69-2.45 101.69-5.6ZM114.84 0L111.51 0 111.51-30 114.84-30 114.84 0ZM123.61 0L120.28 0 120.28-30 123.61-30 123.61 0ZM143.21 0L139.88 0 139.86-24.63Q139.83-26.3 139.23-27.03 138.63-27.75 137.31-27.75L137.31-27.75Q136.33-27.75 135.61-27.4L135.61-27.4 135.61-29.45Q136.16-29.88 136.87-30.11 137.58-30.35 138.46-30.35L138.46-30.35Q140.81-30.35 141.97-28.98 143.13-27.6 143.18-24.4L143.18-24.4 143.21 0ZM133.46 0L130.16 0 130.11-24.63Q130.08-26.3 129.5-27.03 128.91-27.75 127.56-27.75L127.56-27.75Q127.06-27.75 126.62-27.68 126.18-27.6 125.78-27.4L125.78-27.4 125.78-29.38Q126.33-29.85 127.03-30.1 127.73-30.35 128.73-30.35L128.73-30.35Q131.08-30.35 132.23-28.98 133.38-27.6 133.43-24.4L133.43-24.4 133.46 0Z" opacity="1" transform="matrix(1,0,0,1,0,0)" fill="#818cf8" class="wordmark-text-0" data-fill-palette-color="primary" id="text-0"></path></svg></g></svg></g></svg></g></svg></g></svg></g><defs></defs></svg><rect width="395.52" height="112.29011081794195" fill="none" stroke="none" visibility="hidden"></rect></g></svg></g></svg>